<svg xmlns="http://www.w3.org/2000/svg" viewBox="0 0 27.246 36.074"><defs><style>.a{fill:#fff}</style></defs><g transform="translate(-.002 .01)"><path class="a" d="M.388 21.926c.121-.167.234-.342.362-.5.239-.3.975-.359 1.317-.446.29-.071.583-.14.871-.229a1.778 1.778 0 0 0 .679-.421c.318-.251 1.221-.354 1.2.278l-.037 1.009 1.475.5c.468.16 1.142.3 1.4.778l3.3-5.125 1.708-2.6c.015-.022-.162-.32-.162-.382 0-.234.19-.475.261-.7.108-.347.192-.7.276-1.059a8.088 8.088 0 0 0 .207-1.11c.012-.138.049-.586-.074-.675-.261-.187-.4.485-.638.569-.318.116-.345-.049-.6.172-.138.121-.657 1.076-.864 1.007l-1.049 1.359-.775.271s-.35.234.234.544c0 0 .62.66-.31.465 0 0-1.125-.155-1.088-.465 0 0-.854-.815.271-1.63.094-.069.35-.31.35-.31a22.808 22.808 0 0 1 1.669-2.174l.35-.854a17.968 17.968 0 0 1 1.258-2.533 4.782 4.782 0 0 1 .958-.96 7.9 7.9 0 0 1 1.206-.822 2.1 2.1 0 0 0 .935-.625c.128-.209.4-.19.517-.4.059-.106.19-.665.1-.753a1.02 1.02 0 0 1 .076-1.63S14.521.066 17.862-.01c0 0 3.107 1.164 1.475 2.989 0 0 .079 1.4-.389 1.28l-.5 1.28s.81.271.815.271c-.121-.039.539-.746.606-.79.433-.3.916-.524 1.334-.852.194-.153.62-.4.726-.633.187-.4-.246-.857-.29-1.243A1.163 1.163 0 0 1 22 1.457c.116-.15.2-.5.357-.6a1 1 0 0 1 .79.062c.13.155.042.47.177.67.185.276.241.32.207.65a5.325 5.325 0 0 1-.1.588 1.155 1.155 0 0 1-.108.364c-.1.128-.219.172-.31.318s-.165.3-.258.436c-.153.236-.33.458-.473.7-.34.581-.67 1.167-1 1.75-.126.209-.251.416-.377.628a.689.689 0 0 1-.684.443c-.507.064-.5.591-.428.965a5.958 5.958 0 0 1 .2 1.209c0 .667-.185 1.329-.185 2 0 0-.386 3.333-.389 3.338a7.927 7.927 0 0 0 .327 3.838 3.463 3.463 0 0 0 1.159 1.47 6.277 6.277 0 0 1 1.506 2.014c.389.692 1.091 1.263 1.236 2.075a3.5 3.5 0 0 1-.158 1.322 21.989 21.989 0 0 0-.207 5.261c0 .015.054.662.13.6.01-.007.495.318.512.327s0-.017 0-.02a4.683 4.683 0 0 0 1.132.512 5.457 5.457 0 0 1 1.93.534c.748.507-.278.95-.709 1.113-1.5.556-3.171.374-4.761.483 0 0-.854-.231-.389-1.785.015-.625.012-1.251-.02-1.876a7.444 7.444 0 0 0-.463-2.041 3.75 3.75 0 0 1-.194-1.758c.012-.18.327-1.935.325-1.935-.276-.172-.667-.569-1-.574-.537-.007-.726.608-1.179.293-.335-.231-.514-.687-.8-.972-.773-.771-1.694-1.435-2.536-2.129a9.449 9.449 0 0 0-1.888 1.236c-.254.2-.473.438-.731.63a1.283 1.283 0 0 1-.433.261c-.19.044-.256-.106-.423-.1-.534.025-.918.539-1.263.889a16.09 16.09 0 0 1-1.472 1.236c-1.63 1.315-3.055-.613-4.192-1.548-.482-.4-1.3-1.152-2-.923a.964.964 0 0 1-1.037-.211l-1.241.159s-1.162-.152-.192-1.433Z"/><circle class="a" cx="2.504" cy="2.504" r="2.504" transform="rotate(-45 45.06 2.258)"/></g></svg>